<?xml version="1.0" encoding="utf-8"?>
<!-- Generator: Adobe Illustrator 23.0.1, SVG Export Plug-In . SVG Version: 6.00 Build 0)  -->
<svg version="1.1" id="Layer_1" xmlns="http://www.w3.org/2000/svg" xmlns:xlink="http://www.w3.org/1999/xlink" x="0px" y="0px"
	 viewBox="0 0 2000 2000" style="enable-background:new 0 0 2000 2000;" xml:space="preserve">
<style type="text/css">
	.st0{fill:#350517;}
	.st1{fill:#FF5FA0;}
	.st2{fill:#F74194;}
	.st3{fill:#FF88B3;}
	.st4{fill:#FFFFFF;}
	.st5{fill:#EA288A;}
	.st6{fill:#D4145A;}
	.st7{fill-rule:evenodd;clip-rule:evenodd;fill:#D4145A;}
	.st8{fill-rule:evenodd;clip-rule:evenodd;fill:#FFFFFF;}
</style>
<rect class="st0" width="2000" height="2000"/>
<g>
	<g>
		<circle class="st1" cx="252.26" cy="241.78" r="163.29"/>
		<path class="st2" d="M398.46,241.78c0,80.74-65.46,146.2-146.2,146.2c-80.74,0-146.2-65.46-146.2-146.2
			c0-80.74,65.46,24.62,146.2,24.62C333.01,266.4,398.46,161.04,398.46,241.78z"/>
		<path class="st3" d="M231.63,110.09c-28.36-11.53-46.27,37.01-13.89,38.17C250.13,149.42,251.22,118.05,231.63,110.09z"/>
		<path class="st3" d="M273.04,94.7c-16.55,0.73-14.71,19.58,0,22.57C287.75,120.25,289.59,93.98,273.04,94.7z"/>
		<path class="st3" d="M292.36,153.55c-16.55,0.73-14.71,19.58,0,22.57C307.08,179.1,308.91,152.82,292.36,153.55z"/>
		<path class="st4" d="M330,112.67c-31.96-20.4-38.01,9.96-7.04,34.8C353.92,172.3,373.72,140.56,330,112.67z"/>
		<path class="st4" d="M363.75,160.09c12.18-11.57,26.03,7.67,14.03,18.38C365.79,189.19,355.43,168,363.75,160.09z"/>
		<path class="st5" d="M367.22,309.91c32.78-51.84-16.36-61.41-56.34-11.16C270.92,349,322.39,380.82,367.22,309.91z"/>
		<path class="st5" d="M286.63,351.52c12.95,23.88-22.93,37.44-34.62,14.19C240.33,342.46,277.79,335.19,286.63,351.52z"/>
		<path class="st5" d="M133.87,253.92c-19.58,0-17.62,30.2,0,30.45C151.49,284.63,153.18,253.92,133.87,253.92z"/>
		<path class="st5" d="M148.05,289.67c-24.05,9.4-7.16,45.55,14.61,37.4C184.43,318.93,171.76,280.41,148.05,289.67z"/>
		<path class="st5" d="M169.23,252.73c-11.48,0-10.33,19.37,0,19.53C179.56,272.42,180.54,252.73,169.23,252.73z"/>
	</g>
	<g>
		<circle class="st1" cx="628.67" cy="241.78" r="163.29"/>
		<path class="st2" d="M774.87,241.78c0,80.74-65.46,146.2-146.2,146.2s-146.2-65.46-146.2-146.2c0-80.74,65.46,24.62,146.2,24.62
			S774.87,161.04,774.87,241.78z"/>
		<path class="st3" d="M608.04,110.09c-28.36-11.53-46.27,37.01-13.89,38.17C626.54,149.42,627.63,118.05,608.04,110.09z"/>
		<path class="st3" d="M649.45,94.7c-16.55,0.73-14.71,19.58,0,22.57C664.16,120.25,666,93.98,649.45,94.7z"/>
		<path class="st3" d="M668.77,153.55c-16.55,0.73-14.71,19.58,0,22.57C683.49,179.1,685.32,152.82,668.77,153.55z"/>
		<path class="st4" d="M706.41,112.67c-31.96-20.4-38.01,9.96-7.04,34.8C730.33,172.3,750.13,140.56,706.41,112.67z"/>
		<path class="st4" d="M740.16,160.09c12.18-11.57,26.03,7.67,14.03,18.38C742.2,189.19,731.84,168,740.16,160.09z"/>
		<path class="st5" d="M743.63,309.91c32.78-51.84-16.36-61.41-56.34-11.16C647.33,349,698.8,380.82,743.63,309.91z"/>
		<path class="st5" d="M663.04,351.52c12.95,23.88-22.93,37.44-34.62,14.19C616.74,342.46,654.19,335.19,663.04,351.52z"/>
		<path class="st5" d="M510.28,253.92c-19.58,0-17.62,30.2,0,30.45C527.9,284.63,529.59,253.92,510.28,253.92z"/>
		<path class="st5" d="M524.46,289.67c-24.05,9.4-7.16,45.55,14.61,37.4C560.84,318.93,548.17,280.41,524.46,289.67z"/>
		<path class="st5" d="M545.64,252.73c-11.48,0-10.33,19.37,0,19.53C555.97,272.42,556.95,252.73,545.64,252.73z"/>
	</g>
	<g>
		<circle class="st1" cx="1005.08" cy="241.78" r="163.29"/>
		<path class="st2" d="M1151.28,241.78c0,80.74-65.46,146.2-146.2,146.2s-146.2-65.46-146.2-146.2c0-80.74,65.46,24.62,146.2,24.62
			S1151.28,161.04,1151.28,241.78z"/>
		<path class="st3" d="M984.45,110.09c-28.36-11.53-46.27,37.01-13.89,38.17C1002.95,149.42,1004.04,118.05,984.45,110.09z"/>
		<path class="st3" d="M1025.86,94.7c-16.55,0.73-14.71,19.58,0,22.57C1040.57,120.25,1042.41,93.98,1025.86,94.7z"/>
		<path class="st3" d="M1045.18,153.55c-16.55,0.73-14.71,19.58,0,22.57C1059.9,179.1,1061.73,152.82,1045.18,153.55z"/>
		<path class="st4" d="M1082.82,112.67c-31.96-20.4-38.01,9.96-7.04,34.8C1106.74,172.3,1126.54,140.56,1082.82,112.67z"/>
		<path class="st4" d="M1116.57,160.09c12.18-11.57,26.03,7.67,14.03,18.38C1118.61,189.19,1108.25,168,1116.57,160.09z"/>
		<path class="st5" d="M1120.04,309.91c32.78-51.84-16.36-61.41-56.34-11.16C1023.74,349,1075.2,380.82,1120.04,309.91z"/>
		<path class="st5" d="M1039.45,351.52c12.95,23.88-22.93,37.44-34.62,14.19C993.15,342.46,1030.6,335.19,1039.45,351.52z"/>
		<path class="st5" d="M886.69,253.92c-19.58,0-17.62,30.2,0,30.45C904.31,284.63,906,253.92,886.69,253.92z"/>
		<path class="st5" d="M900.87,289.67c-24.05,9.4-7.16,45.55,14.61,37.4C937.24,318.93,924.58,280.41,900.87,289.67z"/>
		<path class="st5" d="M922.05,252.73c-11.48,0-10.33,19.37,0,19.53C932.38,272.42,933.36,252.73,922.05,252.73z"/>
	</g>
	<g>
		<circle class="st1" cx="1381.49" cy="241.78" r="163.29"/>
		<path class="st2" d="M1527.69,241.78c0,80.74-65.46,146.2-146.2,146.2c-80.74,0-146.2-65.46-146.2-146.2
			c0-80.74,65.46,24.62,146.2,24.62C1462.24,266.4,1527.69,161.04,1527.69,241.78z"/>
		<path class="st3" d="M1360.86,110.09c-28.36-11.53-46.27,37.01-13.89,38.17C1379.36,149.42,1380.45,118.05,1360.86,110.09z"/>
		<path class="st3" d="M1402.27,94.7c-16.55,0.73-14.71,19.58,0,22.57C1416.98,120.25,1418.82,93.98,1402.27,94.7z"/>
		<path class="st3" d="M1421.59,153.55c-16.55,0.73-14.71,19.58,0,22.57C1436.31,179.1,1438.14,152.82,1421.59,153.55z"/>
		<path class="st4" d="M1459.23,112.67c-31.96-20.4-38.01,9.96-7.04,34.8C1483.15,172.3,1502.95,140.56,1459.23,112.67z"/>
		<path class="st4" d="M1492.98,160.09c12.18-11.57,26.03,7.67,14.03,18.38C1495.02,189.19,1484.66,168,1492.98,160.09z"/>
		<path class="st5" d="M1496.45,309.91c32.78-51.84-16.36-61.41-56.34-11.16C1400.15,349,1451.61,380.82,1496.45,309.91z"/>
		<path class="st5" d="M1415.86,351.52c12.95,23.88-22.93,37.44-34.62,14.19C1369.56,342.46,1407.01,335.19,1415.86,351.52z"/>
		<path class="st5" d="M1263.1,253.92c-19.58,0-17.62,30.2,0,30.45C1280.72,284.63,1282.41,253.92,1263.1,253.92z"/>
		<path class="st5" d="M1277.28,289.67c-24.05,9.4-7.16,45.55,14.61,37.4C1313.65,318.93,1300.99,280.41,1277.28,289.67z"/>
		<path class="st5" d="M1298.46,252.73c-11.48,0-10.33,19.37,0,19.53C1308.78,272.42,1309.77,252.73,1298.46,252.73z"/>
	</g>
	<g>
		<circle class="st1" cx="1757.9" cy="241.78" r="163.29"/>
		<path class="st2" d="M1904.1,241.78c0,80.74-65.46,146.2-146.2,146.2s-146.2-65.46-146.2-146.2c0-80.74,65.46,24.62,146.2,24.62
			S1904.1,161.04,1904.1,241.78z"/>
		<path class="st3" d="M1737.27,110.09c-28.36-11.53-46.27,37.01-13.89,38.17C1755.77,149.42,1756.86,118.05,1737.27,110.09z"/>
		<path class="st3" d="M1778.68,94.7c-16.55,0.73-14.71,19.58,0,22.57C1793.39,120.25,1795.23,93.98,1778.68,94.7z"/>
		<path class="st3" d="M1798,153.55c-16.55,0.73-14.71,19.58,0,22.57C1812.72,179.1,1814.55,152.82,1798,153.55z"/>
		<path class="st4" d="M1835.64,112.67c-31.96-20.4-38.01,9.96-7.04,34.8C1859.56,172.3,1879.36,140.56,1835.64,112.67z"/>
		<path class="st4" d="M1869.39,160.09c12.18-11.57,26.03,7.67,14.03,18.38C1871.43,189.19,1861.07,168,1869.39,160.09z"/>
		<path class="st5" d="M1872.86,309.91c32.78-51.84-16.36-61.41-56.34-11.16C1776.56,349,1828.02,380.82,1872.86,309.91z"/>
		<path class="st5" d="M1792.27,351.52c12.95,23.88-22.93,37.44-34.62,14.19C1745.97,342.46,1783.42,335.19,1792.27,351.52z"/>
		<path class="st5" d="M1639.51,253.92c-19.58,0-17.62,30.2,0,30.45C1657.13,284.63,1658.82,253.92,1639.51,253.92z"/>
		<path class="st5" d="M1653.69,289.67c-24.05,9.4-7.16,45.55,14.61,37.4C1690.06,318.93,1677.4,280.41,1653.69,289.67z"/>
		<path class="st5" d="M1674.87,252.73c-11.48,0-10.33,19.37,0,19.53C1685.19,272.42,1686.18,252.73,1674.87,252.73z"/>
	</g>
	<g>
		
			<ellipse transform="matrix(0.7071 -0.7071 0.7071 0.7071 -365.2102 360.2565)" class="st1" cx="252.26" cy="620.98" rx="163.29" ry="163.29"/>
		<path class="st2" d="M398.46,620.98c0,80.74-65.46,146.2-146.2,146.2c-80.74,0-146.2-65.46-146.2-146.2s65.46,24.62,146.2,24.62
			C333.01,645.6,398.46,540.23,398.46,620.98z"/>
		<path class="st3" d="M231.63,489.29c-28.36-11.53-46.27,37.01-13.89,38.17C250.13,528.61,251.22,497.25,231.63,489.29z"/>
		<path class="st3" d="M273.04,473.9c-16.55,0.73-14.71,19.58,0,22.57C287.75,499.45,289.59,473.17,273.04,473.9z"/>
		<path class="st3" d="M292.36,532.74c-16.55,0.73-14.71,19.58,0,22.57C307.08,558.3,308.91,532.02,292.36,532.74z"/>
		<path class="st4" d="M330,491.86c-31.96-20.4-38.01,9.96-7.04,34.8C353.92,551.49,373.72,519.76,330,491.86z"/>
		<path class="st4" d="M363.75,539.29c12.18-11.57,26.03,7.67,14.03,18.38C365.79,568.39,355.43,547.19,363.75,539.29z"/>
		<path class="st5" d="M367.22,689.1c32.78-51.84-16.36-61.41-56.34-11.16C270.92,728.2,322.39,760.02,367.22,689.1z"/>
		<path class="st5" d="M286.63,730.71c12.95,23.88-22.93,37.44-34.62,14.19C240.33,721.66,277.79,714.39,286.63,730.71z"/>
		<path class="st5" d="M133.87,633.12c-19.58,0-17.62,30.2,0,30.45C151.49,663.82,153.18,633.12,133.87,633.12z"/>
		<path class="st5" d="M148.05,668.86c-24.05,9.4-7.16,45.55,14.61,37.4C184.43,698.12,171.76,659.6,148.05,668.86z"/>
		<path class="st5" d="M169.23,631.92c-11.48,0-10.33,19.37,0,19.53C179.56,651.61,180.54,631.92,169.23,631.92z"/>
	</g>
	<g>
		
			<ellipse transform="matrix(0.7071 -0.7071 0.7071 0.7071 -254.9624 626.4183)" class="st1" cx="628.67" cy="620.98" rx="163.29" ry="163.29"/>
		<path class="st2" d="M774.87,620.98c0,80.74-65.46,146.2-146.2,146.2s-146.2-65.46-146.2-146.2s65.46,24.62,146.2,24.62
			S774.87,540.23,774.87,620.98z"/>
		<path class="st3" d="M608.04,489.29c-28.36-11.53-46.27,37.01-13.89,38.17C626.54,528.61,627.63,497.25,608.04,489.29z"/>
		<path class="st3" d="M649.45,473.9c-16.55,0.73-14.71,19.58,0,22.57C664.16,499.45,666,473.17,649.45,473.9z"/>
		<path class="st3" d="M668.77,532.74c-16.55,0.73-14.71,19.58,0,22.57C683.49,558.3,685.32,532.02,668.77,532.74z"/>
		<path class="st4" d="M706.41,491.86c-31.96-20.4-38.01,9.96-7.04,34.8C730.33,551.49,750.13,519.76,706.41,491.86z"/>
		<path class="st4" d="M740.16,539.29c12.18-11.57,26.03,7.67,14.03,18.38C742.2,568.39,731.84,547.19,740.16,539.29z"/>
		<path class="st5" d="M743.63,689.1c32.78-51.84-16.36-61.41-56.34-11.16C647.33,728.2,698.8,760.02,743.63,689.1z"/>
		<path class="st5" d="M663.04,730.71c12.95,23.88-22.93,37.44-34.62,14.19C616.74,721.66,654.19,714.39,663.04,730.71z"/>
		<path class="st5" d="M510.28,633.12c-19.58,0-17.62,30.2,0,30.45C527.9,663.82,529.59,633.12,510.28,633.12z"/>
		<path class="st5" d="M524.46,668.86c-24.05,9.4-7.16,45.55,14.61,37.4C560.84,698.12,548.17,659.6,524.46,668.86z"/>
		<path class="st5" d="M545.64,631.92c-11.48,0-10.33,19.37,0,19.53C555.97,651.61,556.95,631.92,545.64,631.92z"/>
	</g>
	<g>
		
			<ellipse transform="matrix(0.7071 -0.7071 0.7071 0.7071 -144.7146 892.5801)" class="st1" cx="1005.08" cy="620.98" rx="163.29" ry="163.29"/>
		<path class="st2" d="M1151.28,620.98c0,80.74-65.46,146.2-146.2,146.2s-146.2-65.46-146.2-146.2s65.46,24.62,146.2,24.62
			S1151.28,540.23,1151.28,620.98z"/>
		<path class="st3" d="M984.45,489.29c-28.36-11.53-46.27,37.01-13.89,38.17C1002.95,528.61,1004.04,497.25,984.45,489.29z"/>
		<path class="st3" d="M1025.86,473.9c-16.55,0.73-14.71,19.58,0,22.57C1040.57,499.45,1042.41,473.17,1025.86,473.9z"/>
		<path class="st3" d="M1045.18,532.74c-16.55,0.73-14.71,19.58,0,22.57C1059.9,558.3,1061.73,532.02,1045.18,532.74z"/>
		<path class="st4" d="M1082.82,491.86c-31.96-20.4-38.01,9.96-7.04,34.8C1106.74,551.49,1126.54,519.76,1082.82,491.86z"/>
		<path class="st4" d="M1116.57,539.29c12.18-11.57,26.03,7.67,14.03,18.38C1118.61,568.39,1108.25,547.19,1116.57,539.29z"/>
		<path class="st5" d="M1120.04,689.1c32.78-51.84-16.36-61.41-56.34-11.16C1023.74,728.2,1075.2,760.02,1120.04,689.1z"/>
		<path class="st5" d="M1039.45,730.71c12.95,23.88-22.93,37.44-34.62,14.19C993.15,721.66,1030.6,714.39,1039.45,730.71z"/>
		<path class="st5" d="M886.69,633.12c-19.58,0-17.62,30.2,0,30.45C904.31,663.82,906,633.12,886.69,633.12z"/>
		<path class="st5" d="M900.87,668.86c-24.05,9.4-7.16,45.55,14.61,37.4C937.24,698.12,924.58,659.6,900.87,668.86z"/>
		<path class="st5" d="M922.05,631.92c-11.48,0-10.33,19.37,0,19.53C932.38,651.61,933.36,631.92,922.05,631.92z"/>
	</g>
	<g>
		
			<ellipse transform="matrix(0.7071 -0.7071 0.7071 0.7071 -34.4668 1158.7419)" class="st1" cx="1381.49" cy="620.98" rx="163.29" ry="163.29"/>
		<path class="st2" d="M1527.69,620.98c0,80.74-65.46,146.2-146.2,146.2c-80.74,0-146.2-65.46-146.2-146.2s65.46,24.62,146.2,24.62
			C1462.24,645.6,1527.69,540.23,1527.69,620.98z"/>
		<path class="st3" d="M1360.86,489.29c-28.36-11.53-46.27,37.01-13.89,38.17C1379.36,528.61,1380.45,497.25,1360.86,489.29z"/>
		<path class="st3" d="M1402.27,473.9c-16.55,0.73-14.71,19.58,0,22.57C1416.98,499.45,1418.82,473.17,1402.27,473.9z"/>
		<path class="st3" d="M1421.59,532.74c-16.55,0.73-14.71,19.58,0,22.57C1436.31,558.3,1438.14,532.02,1421.59,532.74z"/>
		<path class="st4" d="M1459.23,491.86c-31.96-20.4-38.01,9.96-7.04,34.8C1483.15,551.49,1502.95,519.76,1459.23,491.86z"/>
		<path class="st4" d="M1492.98,539.29c12.18-11.57,26.03,7.67,14.03,18.38C1495.02,568.39,1484.66,547.19,1492.98,539.29z"/>
		<path class="st5" d="M1496.45,689.1c32.78-51.84-16.36-61.41-56.34-11.16C1400.15,728.2,1451.61,760.02,1496.45,689.1z"/>
		<path class="st5" d="M1415.86,730.71c12.95,23.88-22.93,37.44-34.62,14.19C1369.56,721.66,1407.01,714.39,1415.86,730.71z"/>
		<path class="st5" d="M1263.1,633.12c-19.58,0-17.62,30.2,0,30.45C1280.72,663.82,1282.41,633.12,1263.1,633.12z"/>
		<path class="st5" d="M1277.28,668.86c-24.05,9.4-7.16,45.55,14.61,37.4C1313.65,698.12,1300.99,659.6,1277.28,668.86z"/>
		<path class="st5" d="M1298.46,631.92c-11.48,0-10.33,19.37,0,19.53C1308.78,651.61,1309.77,631.92,1298.46,631.92z"/>
	</g>
	<g>
		
			<ellipse transform="matrix(0.7071 -0.7071 0.7071 0.7071 75.781 1424.9037)" class="st1" cx="1757.9" cy="620.98" rx="163.29" ry="163.29"/>
		<path class="st2" d="M1904.1,620.98c0,80.74-65.46,146.2-146.2,146.2s-146.2-65.46-146.2-146.2s65.46,24.62,146.2,24.62
			S1904.1,540.23,1904.1,620.98z"/>
		<path class="st3" d="M1737.27,489.29c-28.36-11.53-46.27,37.01-13.89,38.17C1755.77,528.61,1756.86,497.25,1737.27,489.29z"/>
		<path class="st3" d="M1778.68,473.9c-16.55,0.73-14.71,19.58,0,22.57C1793.39,499.45,1795.23,473.17,1778.68,473.9z"/>
		<path class="st3" d="M1798,532.74c-16.55,0.73-14.71,19.58,0,22.57C1812.72,558.3,1814.55,532.02,1798,532.74z"/>
		<path class="st4" d="M1835.64,491.86c-31.96-20.4-38.01,9.96-7.04,34.8C1859.56,551.49,1879.36,519.76,1835.64,491.86z"/>
		<path class="st4" d="M1869.39,539.29c12.18-11.57,26.03,7.67,14.03,18.38C1871.43,568.39,1861.07,547.19,1869.39,539.29z"/>
		<path class="st5" d="M1872.86,689.1c32.78-51.84-16.36-61.41-56.34-11.16C1776.56,728.2,1828.02,760.02,1872.86,689.1z"/>
		<path class="st5" d="M1792.27,730.71c12.95,23.88-22.93,37.44-34.62,14.19C1745.97,721.66,1783.42,714.39,1792.27,730.71z"/>
		<path class="st5" d="M1639.51,633.12c-19.58,0-17.62,30.2,0,30.45C1657.13,663.82,1658.82,633.12,1639.51,633.12z"/>
		<path class="st5" d="M1653.69,668.86c-24.05,9.4-7.16,45.55,14.61,37.4C1690.06,698.12,1677.4,659.6,1653.69,668.86z"/>
		<path class="st5" d="M1674.87,631.92c-11.48,0-10.33,19.37,0,19.53C1685.19,651.61,1686.18,631.92,1674.87,631.92z"/>
	</g>
	<g>
		
			<ellipse transform="matrix(0.7071 -0.7071 0.7071 0.7071 -633.3419 471.3203)" class="st1" cx="252.26" cy="1000.17" rx="163.29" ry="163.29"/>
		<path class="st2" d="M398.46,1000.17c0,80.74-65.46,146.2-146.2,146.2c-80.74,0-146.2-65.46-146.2-146.2s65.46,24.62,146.2,24.62
			C333.01,1024.79,398.46,919.43,398.46,1000.17z"/>
		<path class="st3" d="M231.63,868.48c-28.36-11.53-46.27,37.01-13.89,38.17C250.13,907.81,251.22,876.44,231.63,868.48z"/>
		<path class="st3" d="M273.04,853.09c-16.55,0.73-14.71,19.58,0,22.57C287.75,878.64,289.59,852.37,273.04,853.09z"/>
		<path class="st3" d="M292.36,911.94c-16.55,0.73-14.71,19.58,0,22.57C307.08,937.49,308.91,911.21,292.36,911.94z"/>
		<path class="st4" d="M330,871.06c-31.96-20.4-38.01,9.96-7.04,34.8C353.92,930.69,373.72,898.95,330,871.06z"/>
		<path class="st4" d="M363.75,918.48c12.18-11.57,26.03,7.67,14.03,18.38C365.79,947.58,355.43,926.39,363.75,918.48z"/>
		<path class="st5" d="M367.22,1068.3c32.78-51.84-16.36-61.41-56.34-11.16C270.92,1107.39,322.39,1139.21,367.22,1068.3z"/>
		<path class="st5" d="M286.63,1109.91c12.95,23.88-22.93,37.44-34.62,14.19C240.33,1100.85,277.79,1093.59,286.63,1109.91z"/>
		<path class="st5" d="M133.87,1012.31c-19.58,0-17.62,30.2,0,30.45C151.49,1043.02,153.18,1012.31,133.87,1012.31z"/>
		<path class="st5" d="M148.05,1048.06c-24.05,9.4-7.16,45.55,14.61,37.4C184.43,1077.32,171.76,1038.8,148.05,1048.06z"/>
		<path class="st5" d="M169.23,1011.12c-11.48,0-10.33,19.37,0,19.53C179.56,1030.81,180.54,1011.12,169.23,1011.12z"/>
	</g>
	<g>
		
			<ellipse transform="matrix(0.7071 -0.7071 0.7071 0.7071 -523.0941 737.4821)" class="st1" cx="628.67" cy="1000.17" rx="163.29" ry="163.29"/>
		<path class="st2" d="M774.87,1000.17c0,80.74-65.46,146.2-146.2,146.2s-146.2-65.46-146.2-146.2s65.46,24.62,146.2,24.62
			S774.87,919.43,774.87,1000.17z"/>
		<path class="st3" d="M608.04,868.48c-28.36-11.53-46.27,37.01-13.89,38.17C626.54,907.81,627.63,876.44,608.04,868.48z"/>
		<path class="st3" d="M649.45,853.09c-16.55,0.73-14.71,19.58,0,22.57C664.16,878.64,666,852.37,649.45,853.09z"/>
		<path class="st3" d="M668.77,911.94c-16.55,0.73-14.71,19.58,0,22.57C683.49,937.49,685.32,911.21,668.77,911.94z"/>
		<path class="st4" d="M706.41,871.06c-31.96-20.4-38.01,9.96-7.04,34.8C730.33,930.69,750.13,898.95,706.41,871.06z"/>
		<path class="st4" d="M740.16,918.48c12.18-11.57,26.03,7.67,14.03,18.38C742.2,947.58,731.84,926.39,740.16,918.48z"/>
		<path class="st5" d="M743.63,1068.3c32.78-51.84-16.36-61.41-56.34-11.16C647.33,1107.39,698.8,1139.21,743.63,1068.3z"/>
		<path class="st5" d="M663.04,1109.91c12.95,23.88-22.93,37.44-34.62,14.19C616.74,1100.85,654.19,1093.59,663.04,1109.91z"/>
		<path class="st5" d="M510.28,1012.31c-19.58,0-17.62,30.2,0,30.45C527.9,1043.02,529.59,1012.31,510.28,1012.31z"/>
		<path class="st5" d="M524.46,1048.06c-24.05,9.4-7.16,45.55,14.61,37.4C560.84,1077.32,548.17,1038.8,524.46,1048.06z"/>
		<path class="st5" d="M545.64,1011.12c-11.48,0-10.33,19.37,0,19.53C555.97,1030.81,556.95,1011.12,545.64,1011.12z"/>
	</g>
	<g>
		
			<ellipse transform="matrix(0.7071 -0.7071 0.7071 0.7071 -412.8463 1003.6439)" class="st1" cx="1005.08" cy="1000.17" rx="163.29" ry="163.29"/>
		<path class="st2" d="M1151.28,1000.17c0,80.74-65.46,146.2-146.2,146.2s-146.2-65.46-146.2-146.2s65.46,24.62,146.2,24.62
			S1151.28,919.43,1151.28,1000.17z"/>
		<path class="st3" d="M984.45,868.48c-28.36-11.53-46.27,37.01-13.89,38.17C1002.95,907.81,1004.04,876.44,984.45,868.48z"/>
		<path class="st3" d="M1025.86,853.09c-16.55,0.73-14.71,19.58,0,22.57C1040.57,878.64,1042.41,852.37,1025.86,853.09z"/>
		<path class="st3" d="M1045.18,911.94c-16.55,0.73-14.71,19.58,0,22.57C1059.9,937.49,1061.73,911.21,1045.18,911.94z"/>
		<path class="st4" d="M1082.82,871.06c-31.96-20.4-38.01,9.96-7.04,34.8C1106.74,930.69,1126.54,898.95,1082.82,871.06z"/>
		<path class="st4" d="M1116.57,918.48c12.18-11.57,26.03,7.67,14.03,18.38C1118.61,947.58,1108.25,926.39,1116.57,918.48z"/>
		<path class="st5" d="M1120.04,1068.3c32.78-51.84-16.36-61.41-56.34-11.16C1023.74,1107.39,1075.2,1139.21,1120.04,1068.3z"/>
		<path class="st5" d="M1039.45,1109.91c12.95,23.88-22.93,37.44-34.62,14.19C993.15,1100.85,1030.6,1093.59,1039.45,1109.91z"/>
		<path class="st5" d="M886.69,1012.31c-19.58,0-17.62,30.2,0,30.45C904.31,1043.02,906,1012.31,886.69,1012.31z"/>
		<path class="st5" d="M900.87,1048.06c-24.05,9.4-7.16,45.55,14.61,37.4C937.24,1077.32,924.58,1038.8,900.87,1048.06z"/>
		<path class="st5" d="M922.05,1011.12c-11.48,0-10.33,19.37,0,19.53C932.38,1030.81,933.36,1011.12,922.05,1011.12z"/>
	</g>
	<g>
		
			<ellipse transform="matrix(0.7071 -0.7071 0.7071 0.7071 -302.5984 1269.8057)" class="st1" cx="1381.49" cy="1000.17" rx="163.29" ry="163.29"/>
		<path class="st2" d="M1527.69,1000.17c0,80.74-65.46,146.2-146.2,146.2c-80.74,0-146.2-65.46-146.2-146.2s65.46,24.62,146.2,24.62
			C1462.24,1024.79,1527.69,919.43,1527.69,1000.17z"/>
		<path class="st3" d="M1360.86,868.48c-28.36-11.53-46.27,37.01-13.89,38.17C1379.36,907.81,1380.45,876.44,1360.86,868.48z"/>
		<path class="st3" d="M1402.27,853.09c-16.55,0.73-14.71,19.58,0,22.57C1416.98,878.64,1418.82,852.37,1402.27,853.09z"/>
		<path class="st3" d="M1421.59,911.94c-16.55,0.73-14.71,19.58,0,22.57C1436.31,937.49,1438.14,911.21,1421.59,911.94z"/>
		<path class="st4" d="M1459.23,871.06c-31.96-20.4-38.01,9.96-7.04,34.8C1483.15,930.69,1502.95,898.95,1459.23,871.06z"/>
		<path class="st4" d="M1492.98,918.48c12.18-11.57,26.03,7.67,14.03,18.38C1495.02,947.58,1484.66,926.39,1492.98,918.48z"/>
		<path class="st5" d="M1496.45,1068.3c32.78-51.84-16.36-61.41-56.34-11.16C1400.15,1107.39,1451.61,1139.21,1496.45,1068.3z"/>
		<path class="st5" d="M1415.86,1109.91c12.95,23.88-22.93,37.44-34.62,14.19C1369.56,1100.85,1407.01,1093.59,1415.86,1109.91z"/>
		<path class="st5" d="M1263.1,1012.31c-19.58,0-17.62,30.2,0,30.45C1280.72,1043.02,1282.41,1012.31,1263.1,1012.31z"/>
		<path class="st5" d="M1277.28,1048.06c-24.05,9.4-7.16,45.55,14.61,37.4C1313.65,1077.32,1300.99,1038.8,1277.28,1048.06z"/>
		<path class="st5" d="M1298.46,1011.12c-11.48,0-10.33,19.37,0,19.53C1308.78,1030.81,1309.77,1011.12,1298.46,1011.12z"/>
	</g>
	<g>
		
			<ellipse transform="matrix(0.7071 -0.7071 0.7071 0.7071 -192.3506 1535.9674)" class="st1" cx="1757.9" cy="1000.17" rx="163.29" ry="163.29"/>
		<path class="st2" d="M1904.1,1000.17c0,80.74-65.46,146.2-146.2,146.2s-146.2-65.46-146.2-146.2s65.46,24.62,146.2,24.62
			S1904.1,919.43,1904.1,1000.17z"/>
		<path class="st3" d="M1737.27,868.48c-28.36-11.53-46.27,37.01-13.89,38.17C1755.77,907.81,1756.86,876.44,1737.27,868.48z"/>
		<path class="st3" d="M1778.68,853.09c-16.55,0.73-14.71,19.58,0,22.57C1793.39,878.64,1795.23,852.37,1778.68,853.09z"/>
		<path class="st3" d="M1798,911.94c-16.55,0.73-14.71,19.58,0,22.57C1812.72,937.49,1814.55,911.21,1798,911.94z"/>
		<path class="st4" d="M1835.64,871.06c-31.96-20.4-38.01,9.96-7.04,34.8C1859.56,930.69,1879.36,898.95,1835.64,871.06z"/>
		<path class="st4" d="M1869.39,918.48c12.18-11.57,26.03,7.67,14.03,18.38C1871.43,947.58,1861.07,926.39,1869.39,918.48z"/>
		<path class="st5" d="M1872.86,1068.3c32.78-51.84-16.36-61.41-56.34-11.16C1776.56,1107.39,1828.02,1139.21,1872.86,1068.3z"/>
		<path class="st5" d="M1792.27,1109.91c12.95,23.88-22.93,37.44-34.62,14.19C1745.97,1100.85,1783.42,1093.59,1792.27,1109.91z"/>
		<path class="st5" d="M1639.51,1012.31c-19.58,0-17.62,30.2,0,30.45C1657.13,1043.02,1658.82,1012.31,1639.51,1012.31z"/>
		<path class="st5" d="M1653.69,1048.06c-24.05,9.4-7.16,45.55,14.61,37.4C1690.06,1077.32,1677.4,1038.8,1653.69,1048.06z"/>
		<path class="st5" d="M1674.87,1011.12c-11.48,0-10.33,19.37,0,19.53C1685.19,1030.81,1686.18,1011.12,1674.87,1011.12z"/>
	</g>
	<g>
		<circle class="st1" cx="252.26" cy="1379.37" r="163.29"/>
		<path class="st2" d="M398.46,1379.37c0,80.74-65.46,146.2-146.2,146.2c-80.74,0-146.2-65.46-146.2-146.2
			c0-80.74,65.46,24.62,146.2,24.62C333.01,1403.99,398.46,1298.62,398.46,1379.37z"/>
		<path class="st3" d="M231.63,1247.68c-28.36-11.53-46.27,37.01-13.89,38.17C250.13,1287,251.22,1255.64,231.63,1247.68z"/>
		<path class="st3" d="M273.04,1232.29c-16.55,0.73-14.71,19.58,0,22.57C287.75,1257.84,289.59,1231.56,273.04,1232.29z"/>
		<path class="st3" d="M292.36,1291.13c-16.55,0.73-14.71,19.58,0,22.57C307.08,1316.69,308.91,1290.41,292.36,1291.13z"/>
		<path class="st4" d="M330,1250.25c-31.96-20.4-38.01,9.96-7.04,34.8C353.92,1309.89,373.72,1278.15,330,1250.25z"/>
		<path class="st4" d="M363.75,1297.68c12.18-11.57,26.03,7.67,14.03,18.38C365.79,1326.78,355.43,1305.58,363.75,1297.68z"/>
		<path class="st5" d="M367.22,1447.5c32.78-51.84-16.36-61.41-56.34-11.16C270.92,1486.59,322.39,1518.41,367.22,1447.5z"/>
		<path class="st5" d="M286.63,1489.11c12.95,23.88-22.93,37.44-34.62,14.19C240.33,1480.05,277.79,1472.78,286.63,1489.11z"/>
		<path class="st5" d="M133.87,1391.51c-19.58,0-17.62,30.2,0,30.45C151.49,1422.21,153.18,1391.51,133.87,1391.51z"/>
		<path class="st5" d="M148.05,1427.25c-24.05,9.4-7.16,45.55,14.61,37.4C184.43,1456.51,171.76,1417.99,148.05,1427.25z"/>
		<path class="st5" d="M169.23,1390.32c-11.48,0-10.33,19.37,0,19.53C179.56,1410,180.54,1390.32,169.23,1390.32z"/>
	</g>
	<g>
		<circle class="st1" cx="628.67" cy="1379.37" r="163.29"/>
		<path class="st2" d="M774.87,1379.37c0,80.74-65.46,146.2-146.2,146.2s-146.2-65.46-146.2-146.2c0-80.74,65.46,24.62,146.2,24.62
			S774.87,1298.62,774.87,1379.37z"/>
		<path class="st3" d="M608.04,1247.68c-28.36-11.53-46.27,37.01-13.89,38.17C626.54,1287,627.63,1255.64,608.04,1247.68z"/>
		<path class="st3" d="M649.45,1232.29c-16.55,0.73-14.71,19.58,0,22.57C664.16,1257.84,666,1231.56,649.45,1232.29z"/>
		<path class="st3" d="M668.77,1291.13c-16.55,0.73-14.71,19.58,0,22.57C683.49,1316.69,685.32,1290.41,668.77,1291.13z"/>
		<path class="st4" d="M706.41,1250.25c-31.96-20.4-38.01,9.96-7.04,34.8C730.33,1309.89,750.13,1278.15,706.41,1250.25z"/>
		<path class="st4" d="M740.16,1297.68c12.18-11.57,26.03,7.67,14.03,18.38C742.2,1326.78,731.84,1305.58,740.16,1297.68z"/>
		<path class="st5" d="M743.63,1447.5c32.78-51.84-16.36-61.41-56.34-11.16C647.33,1486.59,698.8,1518.41,743.63,1447.5z"/>
		<path class="st5" d="M663.04,1489.11c12.95,23.88-22.93,37.44-34.62,14.19C616.74,1480.05,654.19,1472.78,663.04,1489.11z"/>
		<path class="st5" d="M510.28,1391.51c-19.58,0-17.62,30.2,0,30.45C527.9,1422.21,529.59,1391.51,510.28,1391.51z"/>
		<path class="st5" d="M524.46,1427.25c-24.05,9.4-7.16,45.55,14.61,37.4C560.84,1456.51,548.17,1417.99,524.46,1427.25z"/>
		<path class="st5" d="M545.64,1390.32c-11.48,0-10.33,19.37,0,19.53C555.97,1410,556.95,1390.32,545.64,1390.32z"/>
	</g>
	<g>
		<circle class="st1" cx="1005.08" cy="1379.37" r="163.29"/>
		<path class="st2" d="M1151.28,1379.37c0,80.74-65.46,146.2-146.2,146.2s-146.2-65.46-146.2-146.2c0-80.74,65.46,24.62,146.2,24.62
			S1151.28,1298.62,1151.28,1379.37z"/>
		<path class="st3" d="M984.45,1247.68c-28.36-11.53-46.27,37.01-13.89,38.17C1002.95,1287,1004.04,1255.64,984.45,1247.68z"/>
		<path class="st3" d="M1025.86,1232.29c-16.55,0.73-14.71,19.58,0,22.57C1040.57,1257.84,1042.41,1231.56,1025.86,1232.29z"/>
		<path class="st3" d="M1045.18,1291.13c-16.55,0.73-14.71,19.58,0,22.57C1059.9,1316.69,1061.73,1290.41,1045.18,1291.13z"/>
		<path class="st4" d="M1082.82,1250.25c-31.96-20.4-38.01,9.96-7.04,34.8C1106.74,1309.89,1126.54,1278.15,1082.82,1250.25z"/>
		<path class="st4" d="M1116.57,1297.68c12.18-11.57,26.03,7.67,14.03,18.38C1118.61,1326.78,1108.25,1305.58,1116.57,1297.68z"/>
		<path class="st5" d="M1120.04,1447.5c32.78-51.84-16.36-61.41-56.34-11.16C1023.74,1486.59,1075.2,1518.41,1120.04,1447.5z"/>
		<path class="st5" d="M1039.45,1489.11c12.95,23.88-22.93,37.44-34.62,14.19C993.15,1480.05,1030.6,1472.78,1039.45,1489.11z"/>
		<path class="st5" d="M886.69,1391.51c-19.58,0-17.62,30.2,0,30.45C904.31,1422.21,906,1391.51,886.69,1391.51z"/>
		<path class="st5" d="M900.87,1427.25c-24.05,9.4-7.16,45.55,14.61,37.4C937.24,1456.51,924.58,1417.99,900.87,1427.25z"/>
		<path class="st5" d="M922.05,1390.32c-11.48,0-10.33,19.37,0,19.53C932.38,1410,933.36,1390.32,922.05,1390.32z"/>
	</g>
	<g>
		<circle class="st1" cx="1381.49" cy="1379.37" r="163.29"/>
		<path class="st2" d="M1527.69,1379.37c0,80.74-65.46,146.2-146.2,146.2c-80.74,0-146.2-65.46-146.2-146.2
			c0-80.74,65.46,24.62,146.2,24.62C1462.24,1403.99,1527.69,1298.62,1527.69,1379.37z"/>
		<path class="st3" d="M1360.86,1247.68c-28.36-11.53-46.27,37.01-13.89,38.17C1379.36,1287,1380.45,1255.64,1360.86,1247.68z"/>
		<path class="st3" d="M1402.27,1232.29c-16.55,0.73-14.71,19.58,0,22.57C1416.98,1257.84,1418.82,1231.56,1402.27,1232.29z"/>
		<path class="st3" d="M1421.59,1291.13c-16.55,0.73-14.71,19.58,0,22.57C1436.31,1316.69,1438.14,1290.41,1421.59,1291.13z"/>
		<path class="st4" d="M1459.23,1250.25c-31.96-20.4-38.01,9.96-7.04,34.8C1483.15,1309.89,1502.95,1278.15,1459.23,1250.25z"/>
		<path class="st4" d="M1492.98,1297.68c12.18-11.57,26.03,7.67,14.03,18.38C1495.02,1326.78,1484.66,1305.58,1492.98,1297.68z"/>
		<path class="st5" d="M1496.45,1447.5c32.78-51.84-16.36-61.41-56.34-11.16C1400.15,1486.59,1451.61,1518.41,1496.45,1447.5z"/>
		<path class="st5" d="M1415.86,1489.11c12.95,23.88-22.93,37.44-34.62,14.19C1369.56,1480.05,1407.01,1472.78,1415.86,1489.11z"/>
		<path class="st5" d="M1263.1,1391.51c-19.58,0-17.62,30.2,0,30.45C1280.72,1422.21,1282.41,1391.51,1263.1,1391.51z"/>
		<path class="st5" d="M1277.28,1427.25c-24.05,9.4-7.16,45.55,14.61,37.4C1313.65,1456.51,1300.99,1417.99,1277.28,1427.25z"/>
		<path class="st5" d="M1298.46,1390.32c-11.48,0-10.33,19.37,0,19.53C1308.78,1410,1309.77,1390.32,1298.46,1390.32z"/>
	</g>
	<g>
		<circle class="st1" cx="1757.9" cy="1379.37" r="163.29"/>
		<path class="st2" d="M1904.1,1379.37c0,80.74-65.46,146.2-146.2,146.2s-146.2-65.46-146.2-146.2c0-80.74,65.46,24.62,146.2,24.62
			S1904.1,1298.62,1904.1,1379.37z"/>
		<path class="st3" d="M1737.27,1247.68c-28.36-11.53-46.27,37.01-13.89,38.17C1755.77,1287,1756.86,1255.64,1737.27,1247.68z"/>
		<path class="st3" d="M1778.68,1232.29c-16.55,0.73-14.71,19.58,0,22.57C1793.39,1257.84,1795.23,1231.56,1778.68,1232.29z"/>
		<path class="st3" d="M1798,1291.13c-16.55,0.73-14.71,19.58,0,22.57C1812.72,1316.69,1814.55,1290.41,1798,1291.13z"/>
		<path class="st4" d="M1835.64,1250.25c-31.96-20.4-38.01,9.96-7.04,34.8C1859.56,1309.89,1879.36,1278.15,1835.64,1250.25z"/>
		<path class="st4" d="M1869.39,1297.68c12.18-11.57,26.03,7.67,14.03,18.38C1871.43,1326.78,1861.07,1305.58,1869.39,1297.68z"/>
		<path class="st5" d="M1872.86,1447.5c32.78-51.84-16.36-61.41-56.34-11.16C1776.56,1486.59,1828.02,1518.41,1872.86,1447.5z"/>
		<path class="st5" d="M1792.27,1489.11c12.95,23.88-22.93,37.44-34.62,14.19C1745.97,1480.05,1783.42,1472.78,1792.27,1489.11z"/>
		<path class="st5" d="M1639.51,1391.51c-19.58,0-17.62,30.2,0,30.45C1657.13,1422.21,1658.82,1391.51,1639.51,1391.51z"/>
		<path class="st5" d="M1653.69,1427.25c-24.05,9.4-7.16,45.55,14.61,37.4C1690.06,1456.51,1677.4,1417.99,1653.69,1427.25z"/>
		<path class="st5" d="M1674.87,1390.32c-11.48,0-10.33,19.37,0,19.53C1685.19,1410,1686.18,1390.32,1674.87,1390.32z"/>
	</g>
	<g>
		<circle class="st1" cx="252.26" cy="1758.56" r="163.29"/>
		<path class="st2" d="M398.46,1758.56c0,80.74-65.46,146.2-146.2,146.2c-80.74,0-146.2-65.46-146.2-146.2s65.46,24.62,146.2,24.62
			C333.01,1783.18,398.46,1677.82,398.46,1758.56z"/>
		<path class="st3" d="M231.63,1626.87c-28.36-11.53-46.27,37.01-13.89,38.17C250.13,1666.2,251.22,1634.83,231.63,1626.87z"/>
		<path class="st3" d="M273.04,1611.48c-16.55,0.73-14.71,19.58,0,22.57C287.75,1637.04,289.59,1610.76,273.04,1611.48z"/>
		<path class="st3" d="M292.36,1670.33c-16.55,0.73-14.71,19.58,0,22.57C307.08,1695.88,308.91,1669.6,292.36,1670.33z"/>
		<path class="st4" d="M330,1629.45c-31.96-20.4-38.01,9.96-7.04,34.8C353.92,1689.08,373.72,1657.34,330,1629.45z"/>
		<path class="st4" d="M363.75,1676.88c12.18-11.57,26.03,7.67,14.03,18.38C365.79,1705.97,355.43,1684.78,363.75,1676.88z"/>
		<path class="st5" d="M367.22,1826.69c32.78-51.84-16.36-61.41-56.34-11.16C270.92,1865.78,322.39,1897.6,367.22,1826.69z"/>
		<path class="st5" d="M286.63,1868.3c12.95,23.88-22.93,37.44-34.62,14.19C240.33,1859.24,277.79,1851.98,286.63,1868.3z"/>
		<path class="st5" d="M133.87,1770.71c-19.58,0-17.62,30.2,0,30.45C151.49,1801.41,153.18,1770.71,133.87,1770.71z"/>
		<path class="st5" d="M148.05,1806.45c-24.05,9.4-7.16,45.55,14.61,37.4C184.43,1835.71,171.76,1797.19,148.05,1806.45z"/>
		<path class="st5" d="M169.23,1769.51c-11.48,0-10.33,19.37,0,19.53C179.56,1789.2,180.54,1769.51,169.23,1769.51z"/>
	</g>
	<g>
		<circle class="st1" cx="628.67" cy="1758.56" r="163.29"/>
		<path class="st2" d="M774.87,1758.56c0,80.74-65.46,146.2-146.2,146.2s-146.2-65.46-146.2-146.2s65.46,24.62,146.2,24.62
			S774.87,1677.82,774.87,1758.56z"/>
		<path class="st3" d="M608.04,1626.87c-28.36-11.53-46.27,37.01-13.89,38.17C626.54,1666.2,627.63,1634.83,608.04,1626.87z"/>
		<path class="st3" d="M649.45,1611.48c-16.55,0.73-14.71,19.58,0,22.57C664.16,1637.04,666,1610.76,649.45,1611.48z"/>
		<path class="st3" d="M668.77,1670.33c-16.55,0.73-14.71,19.58,0,22.57C683.49,1695.88,685.32,1669.6,668.77,1670.33z"/>
		<path class="st4" d="M706.41,1629.45c-31.96-20.4-38.01,9.96-7.04,34.8C730.33,1689.08,750.13,1657.34,706.41,1629.45z"/>
		<path class="st4" d="M740.16,1676.88c12.18-11.57,26.03,7.67,14.03,18.38C742.2,1705.97,731.84,1684.78,740.16,1676.88z"/>
		<path class="st5" d="M743.63,1826.69c32.78-51.84-16.36-61.41-56.34-11.16C647.33,1865.78,698.8,1897.6,743.63,1826.69z"/>
		<path class="st5" d="M663.04,1868.3c12.95,23.88-22.93,37.44-34.62,14.19C616.74,1859.24,654.19,1851.98,663.04,1868.3z"/>
		<path class="st5" d="M510.28,1770.71c-19.58,0-17.62,30.2,0,30.45C527.9,1801.41,529.59,1770.71,510.28,1770.71z"/>
		<path class="st5" d="M524.46,1806.45c-24.05,9.4-7.16,45.55,14.61,37.4C560.84,1835.71,548.17,1797.19,524.46,1806.45z"/>
		<path class="st5" d="M545.64,1769.51c-11.48,0-10.33,19.37,0,19.53C555.97,1789.2,556.95,1769.51,545.64,1769.51z"/>
	</g>
	<g>
		<circle class="st1" cx="1005.08" cy="1758.56" r="163.29"/>
		<path class="st2" d="M1151.28,1758.56c0,80.74-65.46,146.2-146.2,146.2s-146.2-65.46-146.2-146.2s65.46,24.62,146.2,24.62
			S1151.28,1677.82,1151.28,1758.56z"/>
		<path class="st3" d="M984.45,1626.87c-28.36-11.53-46.27,37.01-13.89,38.17C1002.95,1666.2,1004.04,1634.83,984.45,1626.87z"/>
		<path class="st3" d="M1025.86,1611.48c-16.55,0.73-14.71,19.58,0,22.57C1040.57,1637.04,1042.41,1610.76,1025.86,1611.48z"/>
		<path class="st3" d="M1045.18,1670.33c-16.55,0.73-14.71,19.58,0,22.57C1059.9,1695.88,1061.73,1669.6,1045.18,1670.33z"/>
		<path class="st4" d="M1082.82,1629.45c-31.96-20.4-38.01,9.96-7.04,34.8C1106.74,1689.08,1126.54,1657.34,1082.82,1629.45z"/>
		<path class="st4" d="M1116.57,1676.88c12.18-11.57,26.03,7.67,14.03,18.38C1118.61,1705.97,1108.25,1684.78,1116.57,1676.88z"/>
		<path class="st5" d="M1120.04,1826.69c32.78-51.84-16.36-61.41-56.34-11.16C1023.74,1865.78,1075.2,1897.6,1120.04,1826.69z"/>
		<path class="st5" d="M1039.45,1868.3c12.95,23.88-22.93,37.44-34.62,14.19C993.15,1859.24,1030.6,1851.98,1039.45,1868.3z"/>
		<path class="st5" d="M886.69,1770.71c-19.58,0-17.62,30.2,0,30.45C904.31,1801.41,906,1770.71,886.69,1770.71z"/>
		<path class="st5" d="M900.87,1806.45c-24.05,9.4-7.16,45.55,14.61,37.4C937.24,1835.71,924.58,1797.19,900.87,1806.45z"/>
		<path class="st5" d="M922.05,1769.51c-11.48,0-10.33,19.37,0,19.53C932.38,1789.2,933.36,1769.51,922.05,1769.51z"/>
	</g>
	<g>
		<circle class="st1" cx="1381.49" cy="1758.56" r="163.29"/>
		<path class="st2" d="M1527.69,1758.56c0,80.74-65.46,146.2-146.2,146.2c-80.74,0-146.2-65.46-146.2-146.2s65.46,24.62,146.2,24.62
			C1462.24,1783.18,1527.69,1677.82,1527.69,1758.56z"/>
		<path class="st3" d="M1360.86,1626.87c-28.36-11.53-46.27,37.01-13.89,38.17C1379.36,1666.2,1380.45,1634.83,1360.86,1626.87z"/>
		<path class="st3" d="M1402.27,1611.48c-16.55,0.73-14.71,19.58,0,22.57C1416.98,1637.04,1418.82,1610.76,1402.27,1611.48z"/>
		<path class="st3" d="M1421.59,1670.33c-16.55,0.73-14.71,19.58,0,22.57C1436.31,1695.88,1438.14,1669.6,1421.59,1670.33z"/>
		<path class="st4" d="M1459.23,1629.45c-31.96-20.4-38.01,9.96-7.04,34.8C1483.15,1689.08,1502.95,1657.34,1459.23,1629.45z"/>
		<path class="st4" d="M1492.98,1676.88c12.18-11.57,26.03,7.67,14.03,18.38C1495.02,1705.97,1484.66,1684.78,1492.98,1676.88z"/>
		<path class="st5" d="M1496.45,1826.69c32.78-51.84-16.36-61.41-56.34-11.16C1400.15,1865.78,1451.61,1897.6,1496.45,1826.69z"/>
		<path class="st5" d="M1415.86,1868.3c12.95,23.88-22.93,37.44-34.62,14.19C1369.56,1859.24,1407.01,1851.98,1415.86,1868.3z"/>
		<path class="st5" d="M1263.1,1770.71c-19.58,0-17.62,30.2,0,30.45C1280.72,1801.41,1282.41,1770.71,1263.1,1770.71z"/>
		<path class="st5" d="M1277.28,1806.45c-24.05,9.4-7.16,45.55,14.61,37.4C1313.65,1835.71,1300.99,1797.19,1277.28,1806.45z"/>
		<path class="st5" d="M1298.46,1769.51c-11.48,0-10.33,19.37,0,19.53C1308.78,1789.2,1309.77,1769.51,1298.46,1769.51z"/>
	</g>
	<g>
		<circle class="st1" cx="1757.9" cy="1758.56" r="163.29"/>
		<path class="st2" d="M1904.1,1758.56c0,80.74-65.46,146.2-146.2,146.2s-146.2-65.46-146.2-146.2s65.46,24.62,146.2,24.62
			S1904.1,1677.82,1904.1,1758.56z"/>
		<path class="st3" d="M1737.27,1626.87c-28.36-11.53-46.27,37.01-13.89,38.17C1755.77,1666.2,1756.86,1634.83,1737.27,1626.87z"/>
		<path class="st3" d="M1778.68,1611.48c-16.55,0.73-14.71,19.58,0,22.57C1793.39,1637.04,1795.23,1610.76,1778.68,1611.48z"/>
		<path class="st3" d="M1798,1670.33c-16.55,0.73-14.71,19.58,0,22.57C1812.72,1695.88,1814.55,1669.6,1798,1670.33z"/>
		<path class="st4" d="M1835.64,1629.45c-31.96-20.4-38.01,9.96-7.04,34.8C1859.56,1689.08,1879.36,1657.34,1835.64,1629.45z"/>
		<path class="st4" d="M1869.39,1676.88c12.18-11.57,26.03,7.67,14.03,18.38C1871.43,1705.97,1861.07,1684.78,1869.39,1676.88z"/>
		<path class="st5" d="M1872.86,1826.69c32.78-51.84-16.36-61.41-56.34-11.16C1776.56,1865.78,1828.02,1897.6,1872.86,1826.69z"/>
		<path class="st5" d="M1792.27,1868.3c12.95,23.88-22.93,37.44-34.62,14.19C1745.97,1859.24,1783.42,1851.98,1792.27,1868.3z"/>
		<path class="st5" d="M1639.51,1770.71c-19.58,0-17.62,30.2,0,30.45C1657.13,1801.41,1658.82,1770.71,1639.51,1770.71z"/>
		<path class="st5" d="M1653.69,1806.45c-24.05,9.4-7.16,45.55,14.61,37.4C1690.06,1835.71,1677.4,1797.19,1653.69,1806.45z"/>
		<path class="st5" d="M1674.87,1769.51c-11.48,0-10.33,19.37,0,19.53C1685.19,1789.2,1686.18,1769.51,1674.87,1769.51z"/>
	</g>
</g>
<g>
	<path class="st6" d="M265.41,321.93c-7.36,0-14.29-2.87-19.49-8.08c-10.73-10.74-10.72-28.22,0.03-38.95l2.11-2.11h-61.05
		c-15.18,0-27.54-12.35-27.54-27.54c0-15.19,12.35-27.54,27.54-27.54h61.05l-2.12-2.12c-5.2-5.2-8.07-12.11-8.07-19.47
		c0-7.36,2.86-14.27,8.06-19.48c5.2-5.2,12.12-8.07,19.47-8.07c7.35,0,14.27,2.86,19.47,8.06l49.17,49.18
		c5.2,5.2,8.07,12.12,8.07,19.47c-0.01,7.37-2.88,14.28-8.08,19.48l-49.17,49.11C279.67,319.08,272.75,321.93,265.41,321.93z"/>
	<path class="st6" d="M616.3,321.93c-7.34,0-14.25-2.86-19.46-8.05l-49.17-49.11c-5.21-5.21-8.08-12.12-8.08-19.48
		c0-7.36,2.87-14.28,8.07-19.49l49.17-49.17c5.21-5.2,12.12-8.06,19.48-8.06c7.36,0,14.27,2.86,19.47,8.06
		c5.2,5.21,8.07,12.12,8.07,19.48c0,7.36-2.87,14.27-8.07,19.47l-2.12,2.12h61.05c15.18,0,27.54,12.35,27.54,27.54
		c0,15.19-12.35,27.54-27.54,27.54h-61.05l2.11,2.11c5.21,5.2,8.08,12.11,8.08,19.47c0,7.36-2.85,14.28-8.05,19.48
		C630.58,319.06,623.66,321.93,616.3,321.93z"/>
	<path class="st7" d="M1055.16,324.16c-1.41,0-2.86-0.08-4.3-0.25c-4.41-0.51-9.58-1.46-14.48-4.75
		c-9.19-6.16-14.56-14.46-15.63-24.09c-6.44-3.26-12.85-6.56-19.26-9.86c-3.81-1.96-7.62-3.92-11.43-5.87
		c-1.97-1.01-3.95-1.99-5.92-2.98c-0.61-0.31-1.23-0.61-1.84-0.92c-4.69,2.33-9.81,3.55-14.99,3.55c-7.4,0-14.46-2.45-20.4-7.08
		c-6.97-5.43-11.25-12.39-12.73-20.69c-2.35-13.39,2.16-25.21,12.71-33.31c6.11-4.69,13.18-7.17,20.43-7.17
		c5.66,0,11.33,1.51,16.6,4.4c4.12-2.07,8.24-4.16,12.35-6.26l5.58-2.84c4.7-2.39,9.4-4.76,14.1-7.13c0.9-0.45,3.94-1.95,4.54-2.25
		c0.67-5.2,2.45-10.13,5.3-14.7c5.93-9.49,17.3-15.61,28.95-15.61c1.33,0,2.66,0.08,3.95,0.24c14.98,1.84,27.64,14.43,29.46,29.28
		c0.12,1.02,0.18,2.03,0.24,3.19l0.11,1.86l-0.03,0.56c-0.65,13.03-7.27,23.35-18.66,29.07c-5.11,2.57-10.33,3.87-15.53,3.87
		c-5.56,0-10.96-1.48-16.05-4.4c-0.04-0.01-0.08-0.03-0.12-0.05c-6.94,3.59-13.9,7.14-20.87,10.7c0,0-8.97,4.58-10.01,5.11
		l5.25,2.68c6.17,3.16,12.35,6.31,18.53,9.45c1.36,0.69,2.74,1.36,4.11,2.04c0.65,0.32,1.31,0.64,1.96,0.96
		c3.55-2.1,7.62-3.5,12.35-4.26c1.62-0.26,3.29-0.39,4.96-0.39c13.58,0,26.09,8.21,31.14,20.43c5.08,12.29,3.6,24.17-4.29,34.36
		C1074.59,319.63,1065.57,324.16,1055.16,324.16z"/>
	<path class="st6" d="M1361.53,330.36c-17.24,0-30.34-8.07-33.38-20.55c-3.9-16.06,10.71-32.93,33.26-38.42
		c4.6-1.12,9.22-1.68,13.75-1.68c2.83,0,5.59,0.23,8.22,0.66l0.55-110.26l26.15,0.11l-0.44,8.83c0.12,0.33,0.41,0.94,1.01,1.66
		c0.44,0.27,1,0.59,1.67,0.98c38.73,22.71,51.06,58.97,36.66,107.78c-1.4,4.83-5.58,8.1-10.39,8.1c0,0,0,0,0,0
		c-3.03,0-5.9-1.33-7.87-3.64c-2.04-2.39-2.92-5.65-2.4-8.92c5.87-39.9-1.42-51.66-18.87-62.5l-0.41,80.4
		c1.82,15.34-12.47,30.59-33.73,35.75C1370.71,329.79,1366.07,330.36,1361.53,330.36z"/>
	<path class="st6" d="M1743.09,330.36c-17.24,0-30.34-8.07-33.38-20.55c-3.9-16.06,10.71-32.93,33.26-38.42
		c4.6-1.12,9.22-1.68,13.75-1.68c2.83,0,5.59,0.23,8.22,0.66l0.55-110.26l26.16,0.11l-0.44,8.84c0.12,0.33,0.41,0.94,1.01,1.66
		c0.44,0.27,1,0.59,1.67,0.98c38.73,22.71,51.06,58.97,36.66,107.78c-1.39,4.82-5.57,8.1-10.39,8.1c-3.03,0-5.9-1.33-7.88-3.64
		c-2.04-2.39-2.92-5.65-2.4-8.92c5.87-39.91-1.42-51.66-18.88-62.5l-0.4,80.4c1.82,15.34-12.47,30.59-33.73,35.75
		C1752.27,329.79,1747.63,330.36,1743.09,330.36z M1748.22,237.58c-4.1,0-7.95-1.6-10.85-4.5l-11.27-11.27l-11.27,11.27
		c-2.89,2.9-6.75,4.5-10.85,4.5c-4.09,0-7.95-1.6-10.85-4.49c-2.9-2.9-4.5-6.75-4.5-10.85s1.6-7.95,4.5-10.85l11.27-11.27
		l-11.27-11.27c-5.98-5.97-5.99-15.71-0.01-21.7c2.9-2.91,6.76-4.5,10.86-4.5s7.96,1.6,10.85,4.5l11.27,11.27l11.27-11.27
		c2.9-2.9,6.75-4.5,10.85-4.5c4.1,0,7.96,1.6,10.86,4.5c2.89,2.89,4.49,6.74,4.49,10.84c0,4.1-1.6,7.96-4.5,10.85l-11.26,11.27
		l11.27,11.27c2.9,2.9,4.5,6.75,4.5,10.86c0,4.1-1.6,7.96-4.51,10.85C1756.18,235.98,1752.33,237.58,1748.22,237.58z"/>
	<polygon class="st6" points="204.51,647.25 156.86,601.73 221.97,591.59 250.55,532.21 280.3,591.01 345.61,599.84 298.88,646.3 
		310.67,711.15 252.04,681.07 194.02,712.31 	"/>
	<polygon class="st6" points="631.22,697.71 631.22,652.72 627.58,652.72 627.58,697.71 563.16,697.71 563.16,641.91 541.37,623.16 
		625.85,550.46 628.95,547.54 716.82,623.16 695.03,641.91 695.03,697.71 	"/>
	<path class="st6" d="M957.13,689.9c-16.29,0-29.54-15.08-29.54-33.62v-59.86c0-18.54,13.25-33.62,29.54-33.62h95.51
		c16.29,0,29.54,15.08,29.54,33.62v59.86c0,18.54-13.25,33.62-29.54,33.62H957.13z M963.06,594.18c-0.66,0-2.67,2.05-2.67,5.78
		v31.41l11.29-19.66l16.65,19.48l20.2-35.93l20.13,19.79l12.72-20.87H963.06z"/>
	<path class="st7" d="M1743.36,1832.01c-12.88,0-22.75-0.04-32.03-0.14c-5.09-0.05-10.43-1.13-15.44-3.1
		c-10.19-4.03-15.98-12.74-15.92-23.9c0.05-7.2,0.07-14.38,0.09-21.57c0.04-12.52,0.07-25.46,0.26-38.21
		c0.13-8.19,5.13-15.64,13.07-19.46c1.91-0.92,4.43-1.85,7.01-2.69c1.72-4.78,5.98-8.46,11.35-9.2l17.71-2.43
		c0.65-0.09,1.29-0.13,1.92-0.13c4.19,0,8.03,1.88,10.63,4.87c0.01-0.01,0.03-0.02,0.04-0.02c4.03-12.36,13.38-19.15,26.44-19.15
		c0.48,0,0.97,0.01,1.46,0.03c0.88-0.01,4.06-0.03,8.04-0.03c6.23,0,11.32,0.06,15.15,0.17c5.46,0.16,11.94,2.99,16.29,7.8h2.25
		l2.13,7.24c1.45,5.01,4.02,8.31,13.47,11.51c11.38,3.85,17.81,13.29,17.64,25.92c-0.16,12.25-0.13,24.74-0.1,36.82
		c0.01,5.2,0.02,10.39,0.02,15.59c0,18.65-11.21,29.88-29.98,30.05c-5,0.04-10,0.05-15,0.05c-3.87,0-19.34-0.03-23.2-0.03
		C1771.13,1831.98,1748.92,1832.01,1743.36,1832.01z"/>
	<path class="st6" d="M1342.39,702.76c-7.74,0-14.03-6.3-14.03-14.03V567.97c0-7.74,6.29-14.03,14.03-14.03
		c2.45,0,4.87,0.65,7.01,1.88l104.57,60.37c4.33,2.5,7.01,7.15,7.01,12.15c0,5-2.69,9.65-7.01,12.15l-104.57,60.38
		C1347.26,702.1,1344.84,702.76,1342.39,702.76L1342.39,702.76z"/>
	<polygon class="st6" points="165.97,1075.37 165.97,1039.14 181.14,1039.14 181.14,975.65 223.48,975.65 223.48,934.02 
		278.4,934.02 278.4,950.96 322.85,950.96 322.85,1039.14 335.9,1039.14 335.9,1075.37 	"/>
	<path class="st6" d="M1756.53,697.22v-10c0-31.41-25.54-56.96-56.94-56.96h-10v-78.78h10c74.84,0,135.73,60.89,135.73,135.74v10
		H1756.53z M1718.37,697.22c-15.87,0-28.77-12.91-28.77-28.78c0-15.87,12.91-28.78,28.77-28.78c15.87,0,28.79,12.91,28.79,28.78
		C1747.15,684.31,1734.24,697.22,1718.37,697.22z"/>
	<path class="st6" d="M1049.22,1832.42c-5.97,0-11.57-2.31-15.77-6.51l-25.57-25.57l-25.56,25.57c-4.21,4.2-9.81,6.52-15.77,6.52
		c-5.97,0-11.57-2.31-15.77-6.52l-4.35-4.35c-8.69-8.7-8.69-22.84-0.01-31.54l25.57-25.57l-25.56-25.57
		c-8.68-8.7-8.68-22.85-0.01-31.54l4.37-4.36c4.19-4.19,9.79-6.51,15.76-6.51c5.97,0,11.57,2.31,15.77,6.51l25.57,25.57l25.56-25.57
		c4.2-4.21,9.8-6.52,15.78-6.52c5.97,0,11.57,2.32,15.78,6.53l4.35,4.35c4.2,4.2,6.52,9.8,6.52,15.77s-2.32,11.57-6.52,15.78
		l-25.56,25.57l25.56,25.56c4.21,4.21,6.52,9.81,6.52,15.78c0,5.97-2.32,11.57-6.52,15.78l-4.34,4.35
		C1060.79,1830.11,1055.18,1832.42,1049.22,1832.42z"/>
	<path class="st6" d="M1000.82,1080.74c-7.16,0-9.43-4.33-15.73-19.88l-0.11-0.04c-14.34,6.41-16.24,6.41-18.08,6.41h-4.1
		l-3.08-2.92l-10.15-9.94c-5.17-5.14-3.68-9.79,3.04-25.07c-15.9-5.72-20.33-7.88-20.33-15.28v-14.07c0-7.29,5.39-9.5,15.17-13.52
		c1.78-0.73,3.55-1.44,5.06-2.04c-6.97-14.78-8.72-19.8-3.27-25.01l12.98-12.72l4.26-0.04c1.74,0,3.7,0,18.28,6.08l0.08-0.03
		c5.72-15.24,8.06-19.99,15.38-19.99h14.36c7.16,0,9.43,4.33,15.72,19.89l0.09,0.04c14.3-6.39,16.24-6.39,18.11-6.39h4.02l3.08,2.82
		l10.23,10c5.23,5.08,3.74,9.75-3.04,25.14c1.48,0.54,3.2,1.19,4.92,1.84c9.66,3.69,15.49,5.92,15.41,13.48l0,13.96
		c0,7.21-4.41,9.46-20.22,15.6c6.94,14.66,8.68,19.65,3.42,24.88l-13.15,12.85l-4.25,0.04c-1.74,0-3.69,0-18.26-6.09l-0.09,0.04
		c-5.72,15.24-8.06,19.99-15.38,19.99H1000.82z M1007.7,996.18c-6.05,0-10.97,4.72-10.97,10.51c0,5.8,4.92,10.53,10.97,10.53
		c6.05,0,10.97-4.72,10.97-10.53C1018.67,1000.89,1013.75,996.18,1007.7,996.18z"/>
	<path class="st6" d="M210.9,1451.33c-18.91,0-34.29-15.38-34.29-34.29v-29.49h36.58v17.27c0,5.91,0.25,8.87,0.54,10.33
		c2.11,0.31,6.14,0.31,7.63,0.31h21.21l-19.44-18.86l-40.43-38.85l35.32-0.17v-40.29h68.76v39.88l35.24-0.25l-40.11,39.37
		l-19.33,19.16h20.86c4.86,0,6.69-0.5,7.27-0.72c0.31-0.73,0.91-3.03,0.91-9.92v-17.27h36.57v29.49c0,18.91-15.38,34.29-34.29,34.29
		H210.9z"/>
	<path class="st6" d="M615.58,1082.12c-11.45,0-20.76-9.32-20.76-20.76c0-3.34,0.79-6.49,2.2-9.29c-2.49-1.84-4.44-4.41-5.5-7.48
		l-25.42-74.08h-9.92c-8.62,0-15.62-7.01-15.62-15.62c0-8.61,7.01-15.62,15.62-15.62h21.07c6.65,0,12.59,4.23,14.77,10.52l2.92,8.52
		H712.9l-28.69,71.05c2.33,2.73,3.73,6.27,3.73,10.13c0,5.95-3.34,11.13-8.24,13.77c1.04,2.47,1.61,5.18,1.61,8.03
		c0,11.45-9.32,20.76-20.77,20.76c-11.44,0-20.75-9.31-20.75-20.76c0-2.15,0.33-4.22,0.94-6.17h-5.34c0.62,1.97,0.96,4.07,0.96,6.24
		C636.34,1072.8,627.03,1082.12,615.58,1082.12z"/>
	<path class="st6" d="M1359.87,1427.98v0.7h-54.49v-86.93h54.49v0.78l53.58-39.31v32.74c1.1-0.27,2.23-0.42,3.38-0.42
		c1.37,0,2.73,0.21,4.03,0.6c-2.36-5.06-1.51-11.28,2.59-15.52c2.61-2.69,6.24-4.23,9.97-4.23c3.63,0,7.06,1.39,9.67,3.92
		c13.73,13.32,21.73,36.7,21.41,62.53c-0.3,24.75-8.3,46.74-21.39,58.82c-2.59,2.38-5.92,3.68-9.4,3.68
		c-3.91,0-7.64-1.65-10.26-4.54c-2.46-2.67-3.76-6.21-3.61-9.92c0.03-0.65,0.1-1.29,0.21-1.92c-0.48,0.05-0.96,0.07-1.44,0.07
		c-1.79,0-3.54-0.34-5.16-0.99v36.58L1359.87,1427.98z M1413.45,1397.98c1.47-3.94,2.44-9.13,2.33-15.21
		c-0.1-5.26-1.01-9.87-2.33-13.62V1397.98z"/>
	<polygon class="st6" points="1762.92,1427.98 1762.92,1428.68 1708.43,1428.68 1708.43,1341.75 1762.92,1341.75 1762.92,1342.53 
		1816.5,1303.22 1816.5,1464.63 	"/>
	<path class="st6" d="M1393.59,1082.98c-2.76,0.08-5.61,0.11-8.51,0.11s-5.75-0.04-8.52-0.11v0.2l-7.64-0.5l-6.68-0.3v-0.17
		c-10.48-0.85-17.1-2.12-19.62-2.67c-10.78-0.67-19.34-9.65-19.34-20.59v-57.16c0-10.65,8.1-19.44,18.46-20.53
		c-3.89-3.39-7.15-7.28-8.54-11.46c-2-6.02-0.09-13.12,5.68-21.11c4.94-6.84,16.14-18.41,26.84-18.41c1.76,0,3.45,0.3,5.03,0.89
		c2.86,1.08,8.53,3.22,14.32,22.69c5.79-19.47,11.48-21.61,14.32-22.69c1.59-0.6,3.28-0.9,5.04-0.9c10.7,0,21.91,11.57,26.84,18.41
		c5.76,7.99,7.67,15.09,5.68,21.1c-1.39,4.19-4.66,8.07-8.54,11.47c10.37,1.09,18.47,9.88,18.47,20.53v57.16
		c0,10.94-8.56,19.92-19.34,20.59c-2.53,0.55-9.14,1.81-19.63,2.67v0.17l-6.63,0.3l-7.68,0.5V1082.98z"/>
	<path class="st6" d="M1799.47,1074.06c-6.01,3.2-12.45,5.6-19.11,7.13v0.49l-8.87,1.02l-0.52,0.05c-1.26,0.13-2.43,0.24-3.63,0.3
		c-1.57,0.11-3.02,0.16-4.43,0.16l-0.63,0c-10.63-0.1-20.83-2.28-30.43-6.49l-1.28-0.61l-0.09-0.07
		c-26.68-12.37-44.31-39.17-45.01-68.62l-0.22-9.3l44.48-4.26l-0.07,11.07c-0.11,18.35,14.73,33.44,33.08,33.62c0,0,0.01,0,0.01,0
		c1.46,0,3.79-0.11,4.96-0.17c0.12-0.02,0.24-0.04,0.36-0.05l-12.73-12l76.29-8.24l-18.2,76.6L1799.47,1074.06z M1795.24,1008.48
		c0.11-18.36-14.73-33.44-33.08-33.62c0,0-0.01,0-0.01,0c-1.43,0-3.78,0.11-4.96,0.18c-0.13,0.02-0.25,0.04-0.37,0.06l12.73,12
		l-76.29,8.23l18.21-76.59l13.98,20.61c6.01-3.2,12.44-5.6,19.11-7.12v-0.5l8.88-1.02c0.25-0.03,0.52-0.05,0.77-0.07
		c1.09-0.11,2.17-0.21,3.26-0.28c1.81-0.11,3.32-0.16,4.75-0.16l1.94,0.01l0.07,0.02c9.94,0.3,19.49,2.42,28.5,6.33l1.35,0.49
		l0.49,0.4c26.6,12.39,44.16,39.15,44.86,68.55l0.22,9.31l-44.48,4.25L1795.24,1008.48z"/>
	<path class="st6" d="M1307.21,1783.68l33.04-33.09l23.93,23.94c16.61-24.96,35.39-44.57,48.96-57.17
		c8.91-8.27,16.51-14.43,21.32-18.14c10.17-7.85,11.32-8.15,14.52-8.15h7.24l2.26,6.88c1.04,3.18,0.67,8.07-3.84,11.39
		c-23.78,17.77-52.07,80.5-60.96,103.18l-0.76,1.94l-27.43,27.5L1307.21,1783.68z"/>
	<path class="st6" d="M593.65,1460.22c-8.18,0-14.84-6.66-14.84-14.84v-86.95h-6.04v-34.64h30.22c0.93-8.64,8.27-15.38,17.15-15.38
		h19.53c8.88,0,16.22,6.75,17.15,15.38h30.23v34.64h-6.04v86.95c0,8.18-6.66,14.84-14.84,14.84H593.65z"/>
	<path class="st6" d="M990.81,1448.34c-8.02,0-14.86-5.19-17.33-12.38c-3.7,7.34-11.31,12.38-20.07,12.38
		c-12.39,0-22.47-10.08-22.47-22.47c0-9.36,5.76-17.41,13.92-20.78c-8.16-3.37-13.92-11.41-13.92-20.78
		c0-9.37,5.76-17.41,13.92-20.78c-8.16-3.37-13.92-11.41-13.92-20.78c0-12.39,10.08-22.47,22.47-22.47
		c10.52,0,19.37,7.26,21.8,17.04c3.23-5.23,9.01-8.72,15.6-8.72h74.8c10.1,0,18.31,8.21,18.31,18.31s-8.21,18.31-18.31,18.31h-74.8
		c-8.02,0-14.86-5.19-17.33-12.38c-2.42,4.8-6.52,8.63-11.53,10.69c6.53,2.7,11.52,8.38,13.26,15.35c3.23-5.23,9.01-8.72,15.6-8.72
		h74.8c10.1,0,18.31,8.21,18.31,18.31s-8.21,18.31-18.31,18.31h-74.8c-8.02,0-14.86-5.19-17.33-12.38
		c-2.42,4.8-6.52,8.63-11.53,10.69c6.53,2.7,11.52,8.38,13.26,15.35c3.23-5.23,9.01-8.72,15.6-8.72h74.8
		c10.1,0,18.31,8.21,18.31,18.31s-8.21,18.31-18.31,18.31H990.81z"/>
	<path class="st6" d="M272.69,1826.78c-10.33,0-18.74-8.41-18.74-18.75v-87.2c0-10.33,8.41-18.74,18.74-18.74h19.26
		c10.33,0,18.74,8.41,18.74,18.74v87.2c0,10.34-8.41,18.75-18.74,18.75H272.69z M214.67,1826.78c-10.34,0-18.75-8.41-18.75-18.75
		v-87.2c0-10.33,8.41-18.74,18.75-18.74h19.24c10.34,0,18.75,8.41,18.75,18.74v87.2c0,10.34-8.41,18.75-18.75,18.75H214.67z"/>
	<path class="st6" d="M594.9,1819.05c-10.43,0-18.92-8.48-18.92-18.91v-71.41c0-10.43,8.49-18.91,18.92-18.91h71.41
		c10.42,0,18.9,8.48,18.9,18.91v71.41c0,10.43-8.48,18.91-18.9,18.91H594.9z"/>
</g>
<g>
	<path class="st4" d="M277.81,183.71c-6.85-6.85-17.96-6.85-24.81,0c-6.85,6.85-6.85,17.96,0,24.81l19.2,19.2h-85.19
		c-9.69,0-17.54,7.86-17.54,17.54c0,9.69,7.85,17.54,17.54,17.54h85.22l-19.21,19.19c-6.85,6.85-6.86,17.95-0.02,24.81
		c3.42,3.43,7.92,5.15,12.41,5.15c4.48,0,8.97-1.71,12.39-5.13l49.17-49.1c3.29-3.29,5.15-7.76,5.15-12.41
		c0-4.65-1.85-9.11-5.14-12.4L277.81,183.71z"/>
	<path class="st4" d="M603.89,183.71c6.85-6.85,17.96-6.85,24.81,0c6.85,6.85,6.85,17.96,0,24.81l-19.2,19.2h85.19
		c9.69,0,17.54,7.86,17.54,17.54c0,9.69-7.85,17.54-17.54,17.54h-85.22l19.21,19.19c6.85,6.85,6.86,17.95,0.02,24.81
		c-3.42,3.43-7.92,5.15-12.41,5.15c-4.48,0-8.97-1.71-12.39-5.13l-49.17-49.1c-3.29-3.29-5.15-7.76-5.15-12.41
		c0-4.65,1.85-9.11,5.14-12.4L603.89,183.71z"/>
	<path class="st8" d="M991.68,244.3c-0.1-1.19,0.3-2.01,1.43-2.57c4.39-2.18,8.75-4.41,13.11-6.64c9.68-4.95,19.38-9.87,29.03-14.88
		c2.12-1.1,4.04-2,6.03,0.16c0.33,0.36,0.97,0.43,1.42,0.7c7.43,4.47,15.15,4.32,22.62,0.57c8.46-4.25,12.71-11.51,13.16-20.63
		c-0.1-1.54-0.12-2.73-0.26-3.9c-1.33-10.9-10.82-19.35-20.75-20.58c-8.78-1.08-18.49,3.21-23.2,10.75
		c-2.74,4.39-4.09,9.12-4.09,14.28c0,0.63-0.44,1.57-0.95,1.85c-2.87,1.57-5.85,2.97-8.78,4.45c-4.69,2.36-9.38,4.73-14.07,7.11
		c-7.33,3.72-14.63,7.49-21.99,11.13c-0.61,0.3-1.78,0.07-2.38-0.35c-9.28-6.55-20.05-6.79-29.04,0.12
		c-7.68,5.9-10.67,13.86-8.95,23.63c1.09,6.17,4.31,10.87,9.02,14.55c8.1,6.31,18.78,6.58,27.37,0.99c1.03-0.67,1.9-0.76,2.96-0.23
		c3.74,1.9,7.51,3.74,11.24,5.64c10.48,5.36,20.91,10.78,31.4,16.08c2.7,1.36,4.37,2.58,4.58,6.28c0.45,7.82,4.9,13.73,11.36,18.05
		c3.03,2.03,6.47,2.71,10.06,3.12c8.86,1.02,16.03-2.19,21.34-9.03c5.73-7.4,6.59-15.62,2.95-24.42
		c-4.09-9.91-15.38-15.57-25.27-13.98c-4.25,0.68-8.26,2.04-11.59,4.97c-0.69,0.61-1.33,1.18-2.49,0.57
		c-3.44-1.82-6.99-3.46-10.47-5.23c-10.74-5.47-21.48-10.97-32.22-16.44c-2.92-1.49-2.93-1.48-2.62-4.69
		C991.69,245.24,991.72,244.77,991.68,244.3z"/>
	<path class="st4" d="M1403.94,178.18c-3.94-4-4.27-8-4.27-8l-5.79-0.02l-0.57,114.62c-6.55-4.85-17.76-6.52-29.54-3.66
		c-16.84,4.1-28.44,15.89-25.9,26.33c2.55,10.45,18.25,15.61,35.08,11.51c16.34-3.97,27.74-15.18,26.08-25.38l0.49-97.4
		c0,0,2.52,0.49,10.48,5.05c24.93,14.21,35.02,28.91,28.18,75.36c-0.2,1.29,0.83,1.33,1.19,0.06
		C1461.54,201.6,1407.82,182.09,1403.94,178.18z"/>
	<path class="st4" d="M1820.94,276.64c-0.37,1.27-1.4,1.23-1.2-0.06c6.83-46.46-3.26-61.15-28.18-75.36
		c-7.96-4.55-10.48-5.05-10.48-5.05l-0.49,97.4c1.65,10.2-9.75,21.41-26.08,25.38c-16.83,4.09-32.54-1.07-35.08-11.51
		c-2.54-10.45,9.06-22.24,25.9-26.33c11.78-2.86,22.99-1.18,29.54,3.66l0.57-114.62l5.79,0.02c0,0,0.34,4,4.27,8
		C1789.38,182.09,1843.09,201.6,1820.94,276.64z M1752,174.21c-2.08-2.09-5.47-2.09-7.56,0l-18.34,18.34l-18.34-18.34
		c-2.09-2.09-5.47-2.08-7.56,0c-2.08,2.09-2.09,5.47,0,7.56l18.34,18.34l-18.33,18.34c-2.09,2.09-2.09,5.47,0,7.56
		c2.09,2.09,5.47,2.09,7.55,0l18.34-18.34l18.34,18.34c2.09,2.09,5.47,2.09,7.56,0c2.09-2.08,2.09-5.47,0-7.56l-18.33-18.34
		l18.33-18.34C1754.09,179.69,1754.09,176.3,1752,174.21z"/>
	<polygon class="st4" points="273.75,600.22 250.78,554.8 228.7,600.66 178.42,608.49 215.22,643.65 207.12,693.9 251.93,669.77 
		297.21,693 288.11,642.92 324.19,607.04 	"/>
	<path class="st4" d="M629.25,560.99l72.24,62.17l-8.81,7.58l-63.58-54.71l-63.59,54.71l-8.81-7.58l72.24-62.17l0.16,0.14
		L629.25,560.99z M573.16,640.94v46.77h44.42v-44.99h23.64v44.99h43.81v-46.77l-56.89-48.42L573.16,640.94z"/>
	<path class="st4" d="M1052.64,572.79h-95.51c-10.77,0-19.53,10.59-19.53,23.62v59.86c0,13.02,8.77,23.62,19.53,23.62h95.51
		c10.77,0,19.53-10.6,19.53-23.62v-59.86C1072.17,583.39,1063.4,572.79,1052.64,572.79z M1030.64,631.02l-19.79-19.46l-20.81,37.01
		l-16.74-19.59l-19.11,33.27c-2.34-2.86-3.79-6.84-3.79-11.25v-51.05c0-8.71,5.67-15.78,12.67-15.78h83.92c3.63,0,6.89,1.9,9.2,4.94
		L1030.64,631.02z"/>
	<path class="st8" d="M1824.1,1733.06c-9.97-3.37-16.92-7.96-19.87-18.18c-0.04-0.14-0.12,0.12-0.18,0
		c-1.56-4.76-7.73-7.75-11.18-7.85c-9.03-0.26-23.06-0.13-23.06-0.13c-9.16-0.39-15.54,3.2-18.43,12.82
		c-1.99,6.63-12.96,7.57-12.96,7.57l-2.59,0.25l-0.39-2.81c-0.31-2.25-2.37-3.81-4.62-3.51l-17.71,2.43
		c-2.24,0.31-3.81,2.37-3.5,4.62l0.31,2.26c-3.41,0.94-9.1,2.63-12.18,4.12c-4.09,1.97-7.33,5.78-7.4,10.6
		c-0.3,19.9-0.22,39.8-0.35,59.69c-0.04,7.04,3.25,12.04,9.59,14.54c3.71,1.46,7.89,2.37,11.87,2.41
		c21.75,0.22,43.5,0.11,65.24,0.11c12.71,0,25.4,0.08,38.11-0.02c13.26-0.12,20.07-7.02,20.07-20.05
		c0.01-17.51-0.14-35.03,0.08-52.54C1835.05,1741.22,1831.42,1735.53,1824.1,1733.06z M1778.08,1812.98
		c-22.65-0.26-40.68-18.57-40.26-40.96c0.42-22.86,17.8-39.82,40.16-40.1c23.35-0.29,41.14,18.05,40.86,41.07
		C1818.57,1795.37,1800.36,1813.24,1778.08,1812.98z M1810.84,1772.26c0.41,17.78-14.57,32.66-32.51,32.72
		c-17.69,0.06-32.39-14.55-32.49-32.32c-0.12-18.41,15.01-33.4,34.21-32.54C1796.69,1740.88,1810.41,1753.65,1810.84,1772.26z"/>
	<path class="st4" d="M1448.97,624.86l-104.57-60.37c-2.68-1.55-6.04,0.39-6.04,3.49v120.75c0,3.1,3.36,5.04,6.04,3.49l104.57-60.38
		C1451.65,630.28,1451.65,626.41,1448.97,624.86z"/>
	<path class="st4" d="M175.97,1049.14H325.9v16.22H175.97V1049.14z M191.14,1040.33h34.93v-54.68h-34.93V1040.33z M233.48,1040.33
		h34.92v-96.31h-34.92V1040.33z M277.92,1040.33h34.93v-79.37h-34.93V1040.33z"/>
	<path class="st4" d="M1786.13,687.22h-19.6c0-36.98-29.97-66.96-66.94-66.96v-19.6C1747.38,600.67,1786.13,639.42,1786.13,687.22z
		 M1718.37,649.66c-10.38,0-18.77,8.41-18.77,18.77c0,10.38,8.4,18.78,18.77,18.78c10.37,0,18.79-8.4,18.79-18.78
		C1737.15,658.07,1728.74,649.66,1718.37,649.66z M1699.59,561.48v19.6c58.61,0,106.14,47.53,106.14,106.15h19.6
		C1825.33,617.78,1769.04,561.48,1699.59,561.48z"/>
	<path class="st4" d="M1062.27,1714.4l-4.35-4.35c-4.79-4.79-12.62-4.79-17.41,0l-32.64,32.64l-32.64-32.64
		c-4.79-4.78-12.62-4.78-17.4,0l-4.36,4.35c-4.78,4.79-4.78,12.62,0,17.41l32.64,32.64l-32.64,32.64c-4.78,4.79-4.78,12.62,0,17.4
		l4.36,4.35c4.78,4.78,12.61,4.78,17.4,0l32.64-32.64l32.64,32.64c4.79,4.78,12.62,4.78,17.41,0l4.35-4.35
		c4.79-4.78,4.79-12.62,0-17.4l-32.64-32.63l32.64-32.64C1067.06,1727.02,1067.06,1719.18,1062.27,1714.4z"/>
	<path class="st4" d="M1055.14,992.01l-3.3-7.84c0,0,7.69-17.34,7-18.01l-10.16-9.93c-0.72-0.69-18.06,7.22-18.06,7.22l-8-3.23
		c0,0-7.06-17.57-8.03-17.57h-14.36c-1,0-7.55,17.61-7.55,17.61l-7.98,3.24c0,0-17.7-7.52-18.39-6.85l-10.15,9.95
		c-0.71,0.68,7.37,17.67,7.37,17.67l-3.29,7.84c0,0-17.95,6.91-17.95,7.85v14.07c0,0.98,17.98,7.39,17.98,7.39l3.31,7.82
		c0,0-7.68,17.32-7.01,17.98l10.17,9.96c0.68,0.67,18.03-7.24,18.03-7.24l8.01,3.25c0,0,7.07,17.55,8.04,17.55h14.36
		c1,0,7.55-17.61,7.55-17.61l8-3.24c0,0,17.67,7.53,18.36,6.87l10.18-9.95c0.7-0.69-7.4-17.67-7.4-17.67l3.29-7.83
		c0,0,17.95-6.93,17.95-7.87v-14.06C1073.12,998.4,1055.14,992.01,1055.14,992.01z M1007.7,1027.21c-11.56,0-20.97-9.21-20.97-20.53
		c0-11.31,9.41-20.51,20.97-20.51c11.57,0.01,20.97,9.2,20.97,20.51C1028.67,1018,1019.26,1027.21,1007.7,1027.21z"/>
	<path class="st4" d="M228.02,1327.3h48.76v17.86h-48.76V1327.3z M276.78,1351.28h-48.76v16.25l-20.6,0.1l22.67,21.79l22.52,21.85
		l22.3-22.11l22.47-22.06l-20.6,0.15V1351.28z M301.62,1404.82c0,16.52-2.79,20.64-18.18,20.64h-62.08
		c-16.02,0-18.17-1.34-18.17-20.64v-7.27h-16.58v19.48c0,13.42,10.88,24.29,24.29,24.29h83c13.41,0,24.29-10.88,24.29-24.29v-19.48
		h-16.57V1404.82z"/>
	<path class="st4" d="M671.31,1061.29c0,5.94-4.82,10.76-10.77,10.76c-5.94,0-10.75-4.82-10.75-10.76c0-5.95,4.81-10.76,10.75-10.76
		C666.49,1050.53,671.31,1055.34,671.31,1061.29z M615.58,1050.6c-5.94,0-10.76,4.82-10.76,10.76c0,5.95,4.82,10.76,10.76,10.76
		c5.95,0,10.76-4.82,10.76-10.76C626.34,1055.41,621.53,1050.6,615.58,1050.6z M675.38,1024.51l22.69-56.19h-98.34l21.07,56.19
		H675.38z M672.32,1033.87h-62.02l-27.74-80.81c-0.78-2.26-2.91-3.79-5.32-3.79h-21.07c-3.1,0-5.62,2.52-5.62,5.62
		c0,3.1,2.52,5.62,5.62,5.62h17.06l27.73,80.81c0.78,2.27,2.92,3.79,5.32,3.79h66.04c3.1,0,5.62-2.52,5.62-5.62
		C677.94,1036.39,675.42,1033.87,672.32,1033.87z"/>
	<path class="st4" d="M1436.13,1327.49c11.8,11.44,18.66,32.09,18.37,55.23c-0.27,22.07-7.07,41.35-18.17,51.6
		c-0.74,0.68-1.68,1.03-2.62,1.03c-1.05,0-2.09-0.41-2.85-1.25c-1.45-1.57-1.36-4.02,0.23-5.48c9.41-8.69,15.42-26.32,15.66-45.99
		c0.27-20.75-5.87-39.74-16.01-49.57c-1.54-1.49-1.58-3.94-0.09-5.48C1432.14,1326.02,1434.59,1325.99,1436.13,1327.49z
		 M1419.34,1346.46c-1.63-1.38-4.08-1.18-5.46,0.46c-1.39,1.63-1.18,4.07,0.45,5.46c6.82,5.79,11.21,17.36,11.46,30.22
		c0.23,12.6-3.52,23.98-9.8,29.71c-1.58,1.44-1.68,3.89-0.25,5.47c0.76,0.83,1.81,1.26,2.88,1.26c0.92,0,1.86-0.33,2.6-1.01
		c7.99-7.29,12.59-20.59,12.32-35.57C1433.24,1367.21,1427.94,1353.76,1419.34,1346.46z M1315.38,1418.68h34.49v-66.93h-34.49
		V1418.68z M1356.98,1413.89l46.47,31.78v-122.71l-46.47,34.09V1413.89z"/>
	<path class="st4" d="M1718.43,1351.75h34.49v66.93h-34.49V1351.75z M1760.03,1413.89l46.47,31.78v-122.71l-46.47,34.09V1413.89z"/>
	<path class="st4" d="M1385.08,987.66c4.67,0,8.94,0.1,12.82,0.27v84.89c-3.88,0.17-8.15,0.27-12.82,0.27
		c-4.67,0-8.94-0.1-12.84-0.27v-84.89C1376.14,987.76,1380.41,987.66,1385.08,987.66z M1333.28,1001.8v57.16
		c0,5.87,4.76,10.63,10.64,10.63c0,0,7.62,1.93,22.64,2.92v-84.27c-15.02,1-22.64,2.92-22.64,2.92
		C1338.04,991.16,1333.28,995.92,1333.28,1001.8z M1426.23,991.16c0,0-7.62-1.92-22.64-2.92v84.27c15.02-0.99,22.64-2.92,22.64-2.92
		c5.87,0,10.64-4.76,10.64-10.63v-57.16C1436.87,995.92,1432.1,991.16,1426.23,991.16z M1381.16,982.65l-16.58,1.37
		c0,0-19.18-9.23-21.88-17.36c-2.69-8.11,17.13-28.89,24.54-26.11C1374.63,943.34,1381.16,982.65,1381.16,982.65z M1373.57,977.22
		c0,0-3.2-19.26-6.82-20.62c-3.63-1.37-13.34,8.82-12.02,12.79c1.33,3.98,10.72,8.5,10.72,8.5L1373.57,977.22z M1427.46,966.66
		c-2.71,8.12-21.89,17.36-21.89,17.36l-16.58-1.37c0,0,6.53-39.31,13.93-42.1C1410.33,937.76,1430.15,958.55,1427.46,966.66z
		 M1403.4,956.6c-3.63,1.36-6.82,20.62-6.82,20.62l8.12,0.67c0,0,9.4-4.52,10.72-8.5C1416.74,965.42,1407.03,955.24,1403.4,956.6z"
		/>
	<path class="st4" d="M1829.43,1006.22l-24.2,2.31c0.14-23.89-19.06-43.44-42.98-43.68c-2.05-0.02-6.03,0.21-6.03,0.21
		c-6.45,0.86-12.45,3.13-17.68,6.53l8.35,7.87l-40.63,4.38l9.68-40.71l6.61,9.75c9.2-6.62,20.16-10.94,32-12.23v-0.02
		c0.16-0.02,0.32-0.03,0.47-0.04c1.02-0.11,2.03-0.2,3.05-0.27c1.47-0.09,2.93-0.15,4.42-0.14c0.02,0,0.03,0.01,0.04,0.01
		c0.03,0,0.05-0.01,0.08-0.01c9.38,0.1,18.31,2.11,26.41,5.66c0.1,0.04,0.15,0.12,0.25,0.17
		C1812.52,956.35,1828.8,979.37,1829.43,1006.22z M1786.37,1041.8c-5.23,3.4-11.23,5.67-17.68,6.53c0,0-3.98,0.22-6.03,0.2
		c-23.92-0.24-43.13-19.78-42.98-43.68l-24.2,2.32c0.64,26.84,16.91,49.87,40.15,60.21c0.1,0.05,0.16,0.12,0.25,0.17
		c8.1,3.55,17.02,5.56,26.41,5.65c0.03,0,0.05,0,0.08,0c0.02,0,0.03,0,0.04,0c1.49,0.02,2.96-0.04,4.42-0.14
		c1.02-0.05,2.03-0.15,3.05-0.26c0.15-0.02,0.32-0.03,0.47-0.04v-0.01c11.84-1.29,22.8-5.61,32-12.23l6.61,9.75l9.68-40.72
		l-40.63,4.39L1786.37,1041.8z"/>
	<path class="st4" d="M1365.95,1790.44l-25.7-25.7l-18.91,18.94l44.15,44.13l18.89-18.94c0,0,32.96-84.14,64.34-107.58
		C1453.21,1697.99,1401.25,1731.6,1365.95,1790.44z"/>
	<path class="st4" d="M646.93,1325.66c0-4-3.25-7.25-7.25-7.25h-19.53c-4,0-7.25,3.25-7.25,7.25v8.13h-30.12v14.64h6.04v96.95
		c0,2.67,2.17,4.84,4.84,4.84h72.52c2.67,0,4.84-2.17,4.84-4.84v-96.95h6.04v-14.64h-30.13V1325.66z M607.93,1403.96
		c0,2.67-2.17,4.83-4.84,4.83h-1.24c-2.68,0-4.83-2.16-4.83-4.83v-55.52h10.91V1403.96z M617.73,1325.66c0-1.34,1.09-2.42,2.41-2.42
		h19.53c1.33,0,2.42,1.09,2.42,2.42v8.13h-24.36V1325.66z M626.22,1403.96c0,2.67-2.16,4.83-4.83,4.83h-1.24
		c-2.67,0-4.83-2.16-4.83-4.83v-55.52h10.91V1403.96z M644.51,1403.96c0,2.67-2.17,4.83-4.84,4.83h-1.24
		c-2.67,0-4.83-2.16-4.83-4.83v-55.52h10.91V1403.96z M651.9,1348.43h10.91v55.52c0,2.67-2.17,4.83-4.83,4.83h-1.24
		c-2.67,0-4.83-2.16-4.83-4.83V1348.43z"/>
	<path class="st4" d="M965.88,1342.76c0,6.88-5.58,12.47-12.47,12.47c-6.88,0-12.47-5.58-12.47-12.47c0-6.88,5.58-12.47,12.47-12.47
		C960.29,1330.29,965.88,1335.88,965.88,1342.76z M1073.92,1346.92c0-4.57-3.74-8.31-8.31-8.31h-74.8c-4.57,0-8.31,3.74-8.31,8.31
		l0,0c0,4.57,3.74,8.31,8.31,8.31h74.8C1070.18,1355.23,1073.92,1351.49,1073.92,1346.92L1073.92,1346.92z M953.41,1371.85
		c-6.88,0-12.47,5.58-12.47,12.47c0,6.88,5.58,12.47,12.47,12.47c6.88,0,12.47-5.58,12.47-12.47
		C965.88,1377.43,960.29,1371.85,953.41,1371.85z M1073.92,1388.47c0-4.57-3.74-8.31-8.31-8.31h-74.8c-4.57,0-8.31,3.74-8.31,8.31
		l0,0c0,4.57,3.74,8.31,8.31,8.31h74.8C1070.18,1396.78,1073.92,1393.04,1073.92,1388.47L1073.92,1388.47z M953.41,1413.4
		c-6.88,0-12.47,5.58-12.47,12.47s5.58,12.47,12.47,12.47c6.88,0,12.47-5.58,12.47-12.47S960.29,1413.4,953.41,1413.4z
		 M1073.92,1430.03c0-4.57-3.74-8.31-8.31-8.31h-74.8c-4.57,0-8.31,3.74-8.31,8.31l0,0c0,4.57,3.74,8.31,8.31,8.31h74.8
		C1070.18,1438.34,1073.92,1434.59,1073.92,1430.03L1073.92,1430.03z"/>
	<path class="st4" d="M242.65,1720.83v87.2c0,4.82-3.91,8.75-8.75,8.75h-19.24c-4.84,0-8.75-3.93-8.75-8.75v-87.2
		c0-4.83,3.91-8.74,8.75-8.74h19.24C238.75,1712.09,242.65,1716,242.65,1720.83z M291.95,1712.09h-19.26
		c-4.82,0-8.74,3.91-8.74,8.74v87.2c0,4.82,3.92,8.75,8.74,8.75h19.26c4.82,0,8.74-3.93,8.74-8.75v-87.2
		C300.69,1716,296.77,1712.09,291.95,1712.09z"/>
	<path class="st4" d="M666.31,1719.82H594.9c-4.93,0-8.92,3.99-8.92,8.91v71.41c0,4.92,3.99,8.91,8.92,8.91h71.41
		c4.92,0,8.9-3.98,8.9-8.91v-71.41C675.21,1723.81,671.23,1719.82,666.31,1719.82z"/>
</g>
</svg>
